<svg id="COLOR_LINE" height="512" viewBox="0 0 74 74" width="512" xmlns="http://www.w3.org/2000/svg" data-name="COLOR LINE"><path d="m13.059 27.732a24.088 24.088 0 1 1 48.176 0c0 13.3-24.088 43.911-24.088 43.911s-24.088-30.608-24.088-43.911z" fill="#fe7058"/><path d="m37.147 3.643a24.015 24.015 0 0 0 -8.847 1.685 24.084 24.084 0 0 1 27.935 23.779c0 10.362-14.613 31.221-21.075 39.938 1.23 1.635 1.987 2.6 1.987 2.6s24.088-30.61 24.088-43.913a24.088 24.088 0 0 0 -24.088-24.089z" fill="#ea6453"/><circle cx="37.147" cy="27.732" fill="#fff" r="16.921"/><path d="m37.146 45.153a17.422 17.422 0 1 1 17.422-17.422 17.441 17.441 0 0 1 -17.422 17.422zm0-33.843a16.422 16.422 0 1 0 16.422 16.421 16.439 16.439 0 0 0 -16.422-16.421z" fill="#323c6b"/><path d="m49.3 21.565a1.511 1.511 0 0 1 -.294 2.152l-12.745 8.414-7.759 2.7-3.792-3.252 1.074-.708 3.411.655 4.776-3.153-4.246-1.5.727-1.39 8.717-.542 3.482-2.3a11.267 11.267 0 0 1 5.19-1.819 1.547 1.547 0 0 1 1.459.743z" fill="#d5d6db"/><g fill="#323c6b"><path d="m28.5 35.331a.5.5 0 0 1 -.325-.121l-3.792-3.251a.5.5 0 0 1 .05-.8l1.073-.709a.494.494 0 0 1 .37-.075l3.213.625 3.767-2.487-3.3-1.164a.5.5 0 0 1 -.278-.7l.727-1.391a.5.5 0 0 1 .412-.268l8.584-.533 3.371-2.226a11.842 11.842 0 0 1 5.419-1.9 2.049 2.049 0 0 1 1.923.964 2 2 0 0 1 -.436 2.844l-12.741 8.409a.5.5 0 0 1 -.111.055l-7.76 2.7a.492.492 0 0 1 -.166.028zm-2.963-3.7 3.07 2.633 7.429-2.585 12.695-8.379a1.029 1.029 0 0 0 .153-1.458 1.084 1.084 0 0 0 -.989-.52 10.694 10.694 0 0 0 -4.968 1.738l-3.483 2.3a.5.5 0 0 1 -.244.082l-8.435.524-.329.63 3.7 1.307a.5.5 0 0 1 .109.889l-4.775 3.151a.5.5 0 0 1 -.37.074l-3.211-.617z"/><path d="m37.146 72.144a.5.5 0 0 1 -.392-.191c-.988-1.256-24.195-30.9-24.195-44.222a24.588 24.588 0 0 1 49.176 0c0 13.324-23.208 42.966-24.2 44.222a.5.5 0 0 1 -.389.191zm0-68a23.614 23.614 0 0 0 -23.587 23.587c0 12.053 20.474 39.061 23.587 43.1 3.115-4.036 23.589-31.044 23.589-43.1a23.615 23.615 0 0 0 -23.589-23.587z"/><path d="m62.2 37.269a.5.5 0 0 1 -.468-.677l.237-.638a.5.5 0 0 1 .939.343l-.24.648a.5.5 0 0 1 -.468.324z"/><path d="m57.473 47.252a.5.5 0 0 1 -.439-.74c1.522-2.779 2.966-5.612 3.866-7.588a.5.5 0 0 1 .911.415c-.909 1.994-2.367 4.854-3.9 7.654a.5.5 0 0 1 -.438.259z"/><path d="m16.037 11.512a.5.5 0 0 1 -.395-.806c.16-.207.325-.41.493-.611a.5.5 0 1 1 .765.644c-.16.19-.315.383-.467.579a.5.5 0 0 1 -.396.194z"/><path d="m18.08 9.106a.5.5 0 0 1 -.365-.841 19.861 19.861 0 0 1 1.634-1.586 27.647 27.647 0 0 1 6.07-3.906.5.5 0 0 1 .426.9 26.649 26.649 0 0 0 -5.845 3.769 18.881 18.881 0 0 0 -1.55 1.506.5.5 0 0 1 -.37.158z"/></g><path d="m31.24 57.373a.739.739 0 0 1 -.41.13.7.7 0 0 1 -.59-.32c-1.3-1.87-1.82-2.72-2.52-3.89-.35-.58-.962-1.588-1.522-2.488a.667.667 0 0 1 -.09-.55.724.724 0 0 1 1.32-.22c.56.9 1.172 1.908 1.512 2.488.7 1.15 1.2 1.99 2.49 3.84a.726.726 0 0 1 -.19 1.01z" fill="#fff"/><path d="m25.823 48.852a.686.686 0 0 1 -.37.1.726.726 0 0 1 -.63-.35l-.1-.169a.279.279 0 0 1 -.05-.09c-.01-.03-.05-.1-.26-.47a.711.711 0 0 1 -.07-.55.689.689 0 0 1 .34-.44.706.706 0 0 1 .55-.07.715.715 0 0 1 .44.34c.22.39.087.189.1.209a.567.567 0 0 0 .06.09l.24.41a.7.7 0 0 1 .08.55.771.771 0 0 1 -.33.44z" fill="#fff"/></svg>